<?xml version="1.0" encoding="UTF-8"?>
<svg version="1.1" viewBox="0 0 956 956" width="1280" height="1280" xmlns="http://www.w3.org/2000/svg">
<path transform="translate(434,3)" d="m0 0h11l1 2v193l-1 757-4 1-46-7-34-7-35-10-37-14-26-12-22-12-20-12-12-8-14-10-13-10-16-13-15-14-32-32-9-11-13-16-13-18-10-15-12-20-14-26-11-24-11-29-8-25-7-28-5-26-4-29v-8h-2v-83h363l-1-335-26 9-26 11-22 11-25 15-20 14-14 11-14 12-8 8-8 7-16 17-12 14-15 20-12 18-8 13-14 27-9 20-9 24-7 20-5 2-80-1 1-9 9-31 7-21 11-27 14-29 14-25 22-33 13-17 8-10 9-10 7-8 8-8 7-8 12-11 13-12 10-8 18-14 20-14 28-17 33-17 29-12 25-9 24-7 26-6 36-6zm-349 517 2 20 6 30 7 26 10 28 11 25 15 29 14 22 14 19 9 11 12 14 31 31 11 9 14 11 17 12 16 10 14 8 23 12 24 10 27 10 2-3-1-334z"/>
<path transform="translate(509,3)" d="m0 0h9l33 4 28 5 32 8 33 11 29 12 17 8 19 10 30 18 17 12 17 13 11 9 14 12 16 15 12 12 7 8 1 3h2l9 11 12 15 13 18 11 17 8 13 13 23 13 28 11 27 8 24 8 29v6l-5 1-79-1-3-6-10-30-12-28-10-20-10-17-10-16-13-17-10-13-13-15-11-12-7-7-11-9-11-10-20-15-24-16-21-12-24-12-28-11-18-6-1 335h361l1 1 2 21h1v44l-2 2-3 32-5 32-5 24-8 29-10 29-13 30-14 28-10 17-7 11-8 12-12 17-13 16-9 11-14 15-9 10-4 4h-2v2l-8 7-10 9-11 9-14 11-14 10-15 10-13 8-21 12-15 8-27 12-29 11-27 8-25 6-26 5-40 6h-4l-1-6v-367l2-1h60l21 1 1 7v170l-1 96 28-10 26-11 20-10 25-15 16-11 16-12 14-12 8-7 12-11 8-8 7-8 12-14 13-17 16-24 9-15 11-21 13-30 10-30 7-28 6-34 2-8h-361l-1-1v-515z"/>
<path transform="translate(955,454)" d="m0 0"/>
</svg>
